<?xml version="1.0" encoding="utf-8"?>
<!-- Generator: Adobe Illustrator 22.1.0, SVG Export Plug-In . SVG Version: 6.00 Build 0)  -->
<svg version="1.1" id="Capa_1" xmlns="http://www.w3.org/2000/svg" xmlns:xlink="http://www.w3.org/1999/xlink" x="0px" y="0px"
	 viewBox="0 0 53 53.4" style="enable-background:new 0 0 53 53.4;" xml:space="preserve">
<style type="text/css">
	.st0{fill:#0B0C17;}
</style>
<title>Group 6</title>
<desc>Created with Sketch.</desc>
<g>
	<path class="st0" d="M14.7,28.3c1.9,0,3.5-1.6,3.5-3.5s-1.6-3.5-3.5-3.5s-3.5,1.6-3.5,3.5C11.2,26.7,12.7,28.3,14.7,28.3z"/>
	<path class="st0" d="M46.7,8.9C43.3,4.9,37.1,0,26.8,0C7.3,0,0,16.2,0,26.4c0,9.2,5.5,24.8,5.7,25.4c0.3,1,1.2,1.6,2.2,1.6
		c0.3,0,0.5,0,0.8-0.1c1.2-0.4,1.9-1.8,1.4-3C10,50.1,4.6,34.8,4.6,26.4c0-6,4-21.7,22.1-21.7c15.7,0,21.6,13.3,21.6,21.7
		c0,8-3.1,18.4-4.4,22.3h-4.7c-0.2-0.8-0.5-1.7-0.9-2.6c-1.6-3.4-4.3-5.3-7.5-5.3c-5.1,0-7.4,4.5-8.3,8H18c-0.8-2.3-1.5-6-1.9-8.9
		l24.2-10c0.9-0.4,1.5-1.2,1.4-2.2c0-0.4-0.3-8.8-6.1-13.8c-3.4-2.9-7.8-4.1-13.1-3.4c-1.3,0.2-2.2,1.3-2,2.6s1.3,2.2,2.6,2
		c4-0.5,7.2,0.3,9.5,2.3c3,2.6,4,6.6,4.3,8.9l-24.3,10c-0.9,0.4-1.5,1.4-1.4,2.4c0,0.4,0.9,9.6,3.2,13.7c0.4,0.8,1.2,1.2,2,1.2
		c0.1,0,0.1,0,0.2,0h0.1h7.7c1.2,0,2.2-0.9,2.3-2.2c0,0,0.1-1.7,0.8-3.3c1.1-2.6,2.6-2.6,3.1-2.6c3.5,0,4.2,5.9,4.2,5.9
		c0.1,1.2,1.1,2.1,2.3,2.1h8.2c1,0,1.9-0.6,2.2-1.6C48,51.2,53,37.2,53,26.4C53,20.1,50.7,13.8,46.7,8.9z"/>
</g>
</svg>
