<?xml version="1.0" encoding="utf-8"?>
<!-- Generator: Adobe Illustrator 22.1.0, SVG Export Plug-In . SVG Version: 6.00 Build 0)  -->
<svg version="1.1" id="Capa_1" xmlns="http://www.w3.org/2000/svg" xmlns:xlink="http://www.w3.org/1999/xlink" x="0px" y="0px"
	 viewBox="0 0 32 32" style="enable-background:new 0 0 32 32;" xml:space="preserve">
<style type="text/css">
	.st0{fill:#6458F9;}
	.st1{filter:url(#Adobe_OpacityMaskFilter);}
	.st2{fill:#FFFFFF;}
	.st3{mask:url(#mask-2_1_);fill:#FFFFFF;}
</style>
<title>title01</title>
<desc>Created with Sketch.</desc>
<g id="Page-1">
	<g id="Desktop-HD-Copy-9" transform="translate(-216.000000, -2637.000000)">
		<g id="title01" transform="translate(216.000000, 2637.000000)">
			<path id="Rectangle-3" class="st0" d="M10,0h12c5.5,0,10,4.5,10,10v12c0,5.5-4.5,10-10,10H10C4.5,32,0,27.5,0,22V10
				C0,4.5,4.5,0,10,0z"/>
			<g id="Group-3" transform="translate(8.000000, 9.000000)">
				<g id="Clip-2">
				</g>
				<defs>
					<filter id="Adobe_OpacityMaskFilter" filterUnits="userSpaceOnUse" x="0" y="0" width="15.9" height="14.6">
						<feColorMatrix  type="matrix" values="1 0 0 0 0  0 1 0 0 0  0 0 1 0 0  0 0 0 1 0"/>
					</filter>
				</defs>
				<mask maskUnits="userSpaceOnUse" x="0" y="0" width="15.9" height="14.6" id="mask-2_1_">
					<g class="st1">
						<polygon id="path-1_1_" class="st2" points="0,0 15.9,0 15.9,14.6 0,14.6 						"/>
					</g>
				</mask>
				<path id="Fill-1" class="st3" d="M8,12.7c0.1-0.1,0.1-0.1,0.2-0.2c1.6-1.6,3.3-3.2,4.9-4.8c1.1-1.1,1.4-2.4,0.9-3.8
					c-0.4-1.2-1.5-2-2.7-2c-1,0-1.9,0.3-2.6,1c-0.5,0.5-1,0.5-1.5,0C7,2.7,6.7,2.5,6.4,2.3C5.8,1.8,5.1,1.6,4.3,1.8
					c-2.2,0.6-3.2,3-2.2,5c0.2,0.3,0.3,0.6,0.6,0.8C4.5,9.3,6.2,11,8,12.7 M7.9,1.2c0.6-0.3,1.1-0.6,1.7-0.8c2.9-1,5.4,0.8,6,3.4
					c0.5,1.9,0,3.6-1.4,5.1c-1.8,1.8-3.6,3.5-5.3,5.3c-0.6,0.6-1.4,0.6-2,0c-1.8-1.8-3.6-3.5-5.4-5.3c-2.1-2.1-2-5.5,0.1-7.5
					c1.1-1.1,2.5-1.5,4-1.2c0.8,0.1,1.5,0.6,2.1,1.1C7.8,1.2,7.9,1.2,7.9,1.2C7.9,1.3,7.9,1.2,7.9,1.2"/>
			</g>
		</g>
	</g>
</g>
</svg>
