<?xml version="1.0" encoding="utf-8"?>
<!-- Generator: Adobe Illustrator 22.1.0, SVG Export Plug-In . SVG Version: 6.00 Build 0)  -->
<svg version="1.1" id="Capa_1" xmlns="http://www.w3.org/2000/svg" xmlns:xlink="http://www.w3.org/1999/xlink" x="0px" y="0px"
	 viewBox="0 0 32 32" style="enable-background:new 0 0 32 32;" xml:space="preserve">
<style type="text/css">
	.st0{fill:#FF5548;}
	.st1{filter:url(#Adobe_OpacityMaskFilter);}
	.st2{fill:#FFFFFF;}
	.st3{mask:url(#mask-2_1_);fill:#FFFFFF;}
</style>
<title>title03</title>
<desc>Created with Sketch.</desc>
<g id="Page-1">
	<g id="Desktop-HD-Copy-9" transform="translate(-216.000000, -2805.000000)">
		<g id="title03" transform="translate(216.000000, 2805.000000)">
			<path id="Rectangle-3-Copy" class="st0" d="M10,0h12c5.5,0,10,4.5,10,10v12c0,5.5-4.5,10-10,10H10C4.5,32,0,27.5,0,22V10
				C0,4.5,4.5,0,10,0z"/>
			<g id="Group-3" transform="translate(8.000000, 8.000000)">
				<g id="Clip-2">
				</g>
				<defs>
					<filter id="Adobe_OpacityMaskFilter" filterUnits="userSpaceOnUse" x="0" y="0" width="15.8" height="15.8">
						<feColorMatrix  type="matrix" values="1 0 0 0 0  0 1 0 0 0  0 0 1 0 0  0 0 0 1 0"/>
					</filter>
				</defs>
				<mask maskUnits="userSpaceOnUse" x="0" y="0" width="15.8" height="15.8" id="mask-2_1_">
					<g class="st1">
						<polygon id="path-1_1_" class="st2" points="0,0 15.8,0 15.8,15.8 0,15.8 						"/>
					</g>
				</mask>
				<path id="Fill-1" class="st3" d="M1.9,11.9c-0.3,0.3-0.5,2-0.5,2.5c0.8-0.1,1.7-0.2,2.5-0.5C3.2,13.2,2.6,12.5,1.9,11.9
					 M10.9,2.9c0.7,0.7,1.3,1.3,2,2c0.5-0.5,1-1,1.5-1.5c-0.7-0.7-1.3-1.3-2-2C11.9,1.9,11.4,2.4,10.9,2.9 M11.9,5.9
					c-0.7-0.7-1.3-1.3-2-2C7.6,6.2,5.3,8.6,3,10.9c0.6,0.7,1.3,1.3,2,2C7.2,10.5,9.6,8.2,11.9,5.9 M1.5,15.8C0.6,15.8,0,15.2,0,14.5
					c0.1-0.9,0.2-1.8,0.4-2.6c0.1-0.5,0.4-0.9,0.7-1.2C4.6,7.3,7.9,3.9,11.3,0.5c0.4-0.4,0.9-0.6,1.4-0.4c0.2,0.1,0.4,0.2,0.6,0.3
					c0.7,0.7,1.4,1.3,2,2c0.6,0.6,0.6,1.4,0,2c-2,2-4,4-6,6c-1.4,1.4-2.8,2.8-4.2,4.2c-0.3,0.3-0.7,0.6-1.2,0.7
					C3.1,15.6,2.2,15.7,1.5,15.8"/>
			</g>
		</g>
	</g>
</g>
</svg>
