<?xml version="1.0" encoding="utf-8"?>
<!-- Generator: Adobe Illustrator 22.1.0, SVG Export Plug-In . SVG Version: 6.00 Build 0)  -->
<svg version="1.1" id="Capa_1" xmlns="http://www.w3.org/2000/svg" xmlns:xlink="http://www.w3.org/1999/xlink" x="0px" y="0px"
	 viewBox="0 0 32 32" style="enable-background:new 0 0 32 32;" xml:space="preserve">
<style type="text/css">
	.st0{fill:#38E0C4;}
	.st1{filter:url(#Adobe_OpacityMaskFilter);}
	.st2{fill:#FFFFFF;}
	.st3{mask:url(#mask-2_1_);fill:#FFFFFF;}
</style>
<title>title04</title>
<desc>Created with Sketch.</desc>
<g id="Page-1">
	<g id="Desktop-HD-Copy-9" transform="translate(-816.000000, -2805.000000)">
		<g id="title04" transform="translate(816.000000, 2805.000000)">
			<path id="Rectangle-3-Copy-3" class="st0" d="M10,0h12c5.5,0,10,4.5,10,10v12c0,5.5-4.5,10-10,10H10C4.5,32,0,27.5,0,22V10
				C0,4.5,4.5,0,10,0z"/>
			<g id="Group-3" transform="translate(7.000000, 7.000000)">
				<g id="Clip-2">
				</g>
				<defs>
					<filter id="Adobe_OpacityMaskFilter" filterUnits="userSpaceOnUse" x="0" y="0" width="15.9" height="17">
						<feColorMatrix  type="matrix" values="1 0 0 0 0  0 1 0 0 0  0 0 1 0 0  0 0 0 1 0"/>
					</filter>
				</defs>
				<mask maskUnits="userSpaceOnUse" x="0" y="0" width="15.9" height="17" id="mask-2_1_">
					<g class="st1">
						<polygon id="path-1_1_" class="st2" points="0,0 15.9,0 15.9,17 0,17 						"/>
					</g>
				</mask>
				<path id="Fill-1" class="st3" d="M12.4,1.8c-1,0-1.8,0.8-1.8,1.7c0,0.9,0.8,1.7,1.7,1.7c1,0,1.8-0.8,1.8-1.7
					C14.1,2.6,13.3,1.8,12.4,1.8 M14.1,13.4c0-0.9-0.8-1.7-1.7-1.7c-0.9,0-1.7,0.8-1.7,1.7c0,0.9,0.8,1.7,1.7,1.7
					C13.3,15.2,14.1,14.4,14.1,13.4 M3.6,7c-1,0-1.7,0.8-1.7,1.7c0,1,0.8,1.7,1.8,1.7c1,0,1.7-0.8,1.7-1.7C5.3,7.7,4.5,7,3.6,7
					 M5.8,11.5c-0.5,0.4-1.1,0.6-1.7,0.7c-1.5,0.3-3.1-0.6-3.8-2c-1-2.2,0.3-4.7,2.6-5.1C4,5,4.9,5.2,5.7,5.8c0.1,0.1,0.2,0.1,0.3,0
					c0.9-0.6,1.7-1.3,2.6-1.9c0.1-0.1,0.1-0.2,0.1-0.3c0-1,0.3-1.8,1-2.5c1.4-1.5,3.9-1.5,5.3,0c1.2,1.3,1.2,3.1,0.2,4.6
					c-1,1.4-3.1,1.8-4.6,0.9C10.1,6.4,9.7,6,9.4,5.6C8.6,6.2,7.8,6.8,6.9,7.4c0.3,0.9,0.3,1.7,0,2.6c0.8,0.6,1.5,1.1,2.3,1.7
					c0.3-0.5,0.7-1,1.2-1.3c1.3-0.7,2.6-0.7,3.8,0c1.2,0.8,1.8,2,1.6,3.4C15.7,15.8,14,17.1,12,17c-1.6-0.1-3-1.4-3.2-3
					c0-0.2-0.1-0.3-0.3-0.4c-0.8-0.6-1.7-1.2-2.5-1.9C6,11.6,5.9,11.5,5.8,11.5"/>
			</g>
		</g>
	</g>
</g>
</svg>
