<?xml version="1.0" encoding="utf-8"?>
<!-- Generator: Adobe Illustrator 22.1.0, SVG Export Plug-In . SVG Version: 6.00 Build 0)  -->
<svg version="1.1" id="Capa_1" xmlns="http://www.w3.org/2000/svg" xmlns:xlink="http://www.w3.org/1999/xlink" x="0px" y="0px"
	 viewBox="0 0 32 32" style="enable-background:new 0 0 32 32;" xml:space="preserve">
<style type="text/css">
	.st0{fill:#FFC82C;}
	.st1{filter:url(#Adobe_OpacityMaskFilter);}
	.st2{fill:#FFFFFF;}
	.st3{mask:url(#mask-2_1_);fill:#FFFFFF;}
</style>
<title>title02</title>
<desc>Created with Sketch.</desc>
<g id="Page-1">
	<g id="Desktop-HD-Copy-9" transform="translate(-816.000000, -2637.000000)">
		<g id="title02" transform="translate(816.000000, 2637.000000)">
			<path id="Rectangle-3-Copy-2" class="st0" d="M10,0h12c5.5,0,10,4.5,10,10v12c0,5.5-4.5,10-10,10H10C4.5,32,0,27.5,0,22V10
				C0,4.5,4.5,0,10,0z"/>
			<g id="Group-3" transform="translate(9.000000, 7.000000)">
				<g id="Clip-2">
				</g>
				<defs>
					<filter id="Adobe_OpacityMaskFilter" filterUnits="userSpaceOnUse" x="0" y="0" width="13.9" height="18.9">
						<feColorMatrix  type="matrix" values="1 0 0 0 0  0 1 0 0 0  0 0 1 0 0  0 0 0 1 0"/>
					</filter>
				</defs>
				<mask maskUnits="userSpaceOnUse" x="0" y="0" width="13.9" height="18.9" id="mask-2_1_">
					<g class="st1">
						<polygon id="path-1_1_" class="st2" points="0,0 13.9,0 13.9,18.9 0,18.9 						"/>
					</g>
				</mask>
				<path id="Fill-1" class="st3" d="M11.7,8.3c-0.3,0.7-0.7,1.3-1.1,1.9c-0.5,0.8-1,1.7-1.2,2.7C9.4,13,9.3,13,9.2,13
					c-0.8,0-1.5,0-2.3,0c-0.7,0-1.5,0-2.2,0c-0.1,0-0.2,0-0.2-0.2c-0.2-0.9-0.6-1.6-1.1-2.4C3,9.6,2.4,8.9,2.1,8
					C1.2,5.9,2,3.6,4,2.5c2-1.1,4.1-1.1,6.1,0.2C12.1,3.8,12.7,6.2,11.7,8.3 M9.3,17.1c0,0.2-0.1,0.3-0.3,0.3c-1.3,0-2.7,0-4,0
					c-0.2,0-0.3-0.1-0.3-0.3c0-0.8,0-1.5,0-2.3h4.6v1.7C9.3,16.7,9.3,16.9,9.3,17.1 M13.7,4.9c-0.5-2.1-1.8-3.5-3.7-4.3
					C8.5,0,6.9-0.2,5.2,0.2c-1.6,0.3-3,1.1-4,2.5c-1.4,2-1.6,4.2-0.6,6.4C1,9.9,1.6,10.7,2,11.5c0.4,0.8,0.8,1.5,0.9,2.4
					c0,1,0,2,0,3c0,0.8,0.3,1.5,1,1.9H10c0.6-0.4,1-0.9,1-1.7c0-0.9,0-1.7,0-2.6c0-1,0.2-1.9,0.7-2.7c0.5-0.8,1-1.6,1.4-2.4
					C13.9,8.1,14.1,6.5,13.7,4.9"/>
			</g>
		</g>
	</g>
</g>
</svg>
